<svg width="254" height="60" viewBox="0 0 254 60" fill="none" xmlns="http://www.w3.org/2000/svg">
<g filter="url(#filter0_d_105_6810)">
<path d="M0 16C0 7.16344 7.16344 0 16 0H234C242.837 0 250 7.16344 250 16V40C250 48.8366 242.837 56 234 56H16C7.16345 56 0 48.8366 0 40V16Z" fill="#2E7BA2" shape-rendering="crispEdges"/>
<path d="M23.6534 35.1C22.7334 35.1 21.8601 34.9133 21.0334 34.54C20.2201 34.1667 19.5001 33.6533 18.8734 33C18.2601 32.3333 17.7801 31.56 17.4334 30.68C17.0868 29.8 16.9134 28.8467 16.9134 27.82C16.9134 26.8467 17.0868 25.9333 17.4334 25.08C17.7801 24.2133 18.2668 23.4533 18.8934 22.8C19.5201 22.1467 20.2534 21.6333 21.0934 21.26C21.9334 20.8867 22.8468 20.7 23.8334 20.7C25.1668 20.7 26.3068 20.9867 27.2534 21.56C28.2134 22.12 28.9334 22.8667 29.4134 23.8L27.3534 25.32C26.9934 24.6133 26.4868 24.0733 25.8334 23.7C25.1934 23.3267 24.4934 23.14 23.7334 23.14C23.1334 23.14 22.5868 23.2667 22.0934 23.52C21.6001 23.7733 21.1734 24.12 20.8134 24.56C20.4534 25 20.1734 25.5067 19.9734 26.08C19.7868 26.6533 19.6934 27.26 19.6934 27.9C19.6934 28.58 19.7934 29.2067 19.9934 29.78C20.2068 30.3533 20.5001 30.8533 20.8734 31.28C21.2601 31.7067 21.7068 32.0467 22.2134 32.3C22.7201 32.54 23.2801 32.66 23.8934 32.66C24.6134 32.66 25.3001 32.4733 25.9534 32.1C26.6201 31.7267 27.2401 31.18 27.8134 30.46V33.18C26.6268 34.46 25.2401 35.1 23.6534 35.1ZM27.6134 29.72H24.7534V27.7H29.8934V35H27.6134V29.72ZM31.2656 31.9C31.2656 31.22 31.4523 30.6267 31.8256 30.12C32.2123 29.6 32.7456 29.2 33.4256 28.92C34.1056 28.64 34.8856 28.5 35.7656 28.5C36.2056 28.5 36.6523 28.5333 37.1056 28.6C37.559 28.6667 37.9523 28.7733 38.2856 28.92V28.36C38.2856 27.6933 38.0856 27.18 37.6856 26.82C37.299 26.46 36.719 26.28 35.9456 26.28C35.3723 26.28 34.8256 26.38 34.3056 26.58C33.7856 26.78 33.239 27.0733 32.6656 27.46L31.8056 25.7C32.499 25.2467 33.2056 24.9067 33.9256 24.68C34.659 24.4533 35.4256 24.34 36.2256 24.34C37.719 24.34 38.879 24.7133 39.7056 25.46C40.5456 26.2067 40.9656 27.2733 40.9656 28.66V32C40.9656 32.28 41.0123 32.48 41.1056 32.6C41.2123 32.72 41.379 32.7933 41.6056 32.82V35C41.3656 35.04 41.1456 35.0733 40.9456 35.1C40.759 35.1267 40.599 35.14 40.4656 35.14C39.9323 35.14 39.5256 35.02 39.2456 34.78C38.979 34.54 38.8123 34.2467 38.7456 33.9L38.6856 33.36C38.2323 33.9467 37.6656 34.4 36.9856 34.72C36.3056 35.04 35.6123 35.2 34.9056 35.2C34.2123 35.2 33.5856 35.06 33.0256 34.78C32.479 34.4867 32.0456 34.0933 31.7256 33.6C31.419 33.0933 31.2656 32.5267 31.2656 31.9ZM37.7856 32.44C37.9323 32.28 38.0523 32.12 38.1456 31.96C38.239 31.8 38.2856 31.6533 38.2856 31.52V30.46C37.9656 30.3267 37.619 30.2267 37.2456 30.16C36.8723 30.08 36.519 30.04 36.1856 30.04C35.4923 30.04 34.919 30.1933 34.4656 30.5C34.0256 30.7933 33.8056 31.1867 33.8056 31.68C33.8056 31.9467 33.879 32.2 34.0256 32.44C34.1723 32.68 34.3856 32.8733 34.6656 33.02C34.9456 33.1667 35.279 33.24 35.6656 33.24C36.0656 33.24 36.459 33.1667 36.8456 33.02C37.2323 32.86 37.5456 32.6667 37.7856 32.44ZM49.71 26.84C48.8967 26.84 48.17 27 47.53 27.32C46.89 27.6267 46.43 28.0733 46.15 28.66V35H43.47V24.52H45.93V26.76C46.3033 26.04 46.7767 25.4733 47.35 25.06C47.9233 24.6467 48.53 24.42 49.17 24.38C49.3167 24.38 49.43 24.38 49.51 24.38C49.59 24.38 49.6567 24.3867 49.71 24.4V26.84ZM50.4258 31.9C50.4258 31.22 50.6124 30.6267 50.9858 30.12C51.3724 29.6 51.9058 29.2 52.5858 28.92C53.2658 28.64 54.0458 28.5 54.9258 28.5C55.3658 28.5 55.8124 28.5333 56.2658 28.6C56.7191 28.6667 57.1124 28.7733 57.4458 28.92V28.36C57.4458 27.6933 57.2458 27.18 56.8458 26.82C56.4591 26.46 55.8791 26.28 55.1058 26.28C54.5324 26.28 53.9858 26.38 53.4658 26.58C52.9458 26.78 52.3991 27.0733 51.8258 27.46L50.9658 25.7C51.6591 25.2467 52.3658 24.9067 53.0858 24.68C53.8191 24.4533 54.5858 24.34 55.3858 24.34C56.8791 24.34 58.0391 24.7133 58.8658 25.46C59.7058 26.2067 60.1258 27.2733 60.1258 28.66V32C60.1258 32.28 60.1724 32.48 60.2658 32.6C60.3724 32.72 60.5391 32.7933 60.7658 32.82V35C60.5258 35.04 60.3058 35.0733 60.1058 35.1C59.9191 35.1267 59.7591 35.14 59.6258 35.14C59.0924 35.14 58.6858 35.02 58.4058 34.78C58.1391 34.54 57.9724 34.2467 57.9058 33.9L57.8458 33.36C57.3924 33.9467 56.8258 34.4 56.1458 34.72C55.4658 35.04 54.7724 35.2 54.0658 35.2C53.3724 35.2 52.7458 35.06 52.1858 34.78C51.6391 34.4867 51.2058 34.0933 50.8858 33.6C50.5791 33.0933 50.4258 32.5267 50.4258 31.9ZM56.9458 32.44C57.0924 32.28 57.2124 32.12 57.3058 31.96C57.3991 31.8 57.4458 31.6533 57.4458 31.52V30.46C57.1258 30.3267 56.7791 30.2267 56.4058 30.16C56.0324 30.08 55.6791 30.04 55.3458 30.04C54.6524 30.04 54.0791 30.1933 53.6258 30.5C53.1858 30.7933 52.9658 31.1867 52.9658 31.68C52.9658 31.9467 53.0391 32.2 53.1858 32.44C53.3324 32.68 53.5458 32.8733 53.8258 33.02C54.1058 33.1667 54.4391 33.24 54.8258 33.24C55.2258 33.24 55.6191 33.1667 56.0058 33.02C56.3924 32.86 56.7058 32.6667 56.9458 32.44ZM72.3702 35H69.6902V29.12C69.6902 28.28 69.5435 27.6667 69.2502 27.28C68.9568 26.8933 68.5502 26.7 68.0302 26.7C67.6702 26.7 67.3035 26.7933 66.9302 26.98C66.5702 27.1667 66.2435 27.4267 65.9502 27.76C65.6568 28.08 65.4435 28.4533 65.3102 28.88V35H62.6302V24.52H65.0502V26.46C65.3168 26.0067 65.6568 25.6267 66.0702 25.32C66.4835 25 66.9568 24.76 67.4902 24.6C68.0368 24.4267 68.6102 24.34 69.2102 24.34C69.8635 24.34 70.3968 24.46 70.8102 24.7C71.2368 24.9267 71.5568 25.24 71.7702 25.64C71.9968 26.0267 72.1502 26.4667 72.2302 26.96C72.3235 27.4533 72.3702 27.9533 72.3702 28.46V35ZM80.9219 34.46C80.6952 34.5533 80.4219 34.66 80.1019 34.78C79.7819 34.9 79.4352 34.9933 79.0619 35.06C78.7019 35.14 78.3352 35.18 77.9619 35.18C77.4685 35.18 77.0152 35.0933 76.6019 34.92C76.1885 34.7467 75.8552 34.4733 75.6019 34.1C75.3619 33.7133 75.2419 33.2133 75.2419 32.6V26.58H73.8619V24.52H75.2419V21.12H77.9219V24.52H80.1219V26.58H77.9219V31.7C77.9352 32.06 78.0352 32.32 78.2219 32.48C78.4085 32.64 78.6419 32.72 78.9219 32.72C79.2019 32.72 79.4752 32.6733 79.7419 32.58C80.0085 32.4867 80.2219 32.4067 80.3819 32.34L80.9219 34.46ZM82.3177 35V24.52H84.9977V35H82.3177ZM82.3177 23.06V20.4H84.9977V23.06H82.3177ZM93.6553 26.84C92.842 26.84 92.1153 27 91.4753 27.32C90.8353 27.6267 90.3753 28.0733 90.0953 28.66V35H87.4153V24.52H89.8753V26.76C90.2486 26.04 90.722 25.4733 91.2953 25.06C91.8686 24.6467 92.4753 24.42 93.1153 24.38C93.262 24.38 93.3753 24.38 93.4553 24.38C93.5353 24.38 93.602 24.3867 93.6553 24.4V26.84ZM99.5052 35V24.52H102.185V35H99.5052ZM99.5052 23.06V20.4H102.185V23.06H99.5052ZM114.343 35H111.663V29.12C111.663 28.28 111.516 27.6667 111.223 27.28C110.929 26.8933 110.523 26.7 110.003 26.7C109.643 26.7 109.276 26.7933 108.903 26.98C108.543 27.1667 108.216 27.4267 107.923 27.76C107.629 28.08 107.416 28.4533 107.283 28.88V35H104.603V24.52H107.023V26.46C107.289 26.0067 107.629 25.6267 108.043 25.32C108.456 25 108.929 24.76 109.463 24.6C110.009 24.4267 110.583 24.34 111.183 24.34C111.836 24.34 112.369 24.46 112.783 24.7C113.209 24.9267 113.529 25.24 113.743 25.64C113.969 26.0267 114.123 26.4667 114.203 26.96C114.296 27.4533 114.343 27.9533 114.343 28.46V35ZM120.773 35.06C120.08 35.06 119.44 34.9267 118.853 34.66C118.28 34.38 117.78 33.9933 117.353 33.5C116.94 33.0067 116.62 32.44 116.393 31.8C116.166 31.16 116.053 30.48 116.053 29.76C116.053 29 116.173 28.2933 116.413 27.64C116.653 26.9867 116.986 26.4133 117.413 25.92C117.853 25.4133 118.366 25.0267 118.953 24.76C119.553 24.48 120.213 24.34 120.933 24.34C121.746 24.34 122.46 24.5267 123.073 24.9C123.686 25.26 124.193 25.7467 124.593 26.36V24.52H126.933V34.5C126.933 35.54 126.68 36.4267 126.173 37.16C125.68 37.9067 124.993 38.4733 124.113 38.86C123.233 39.26 122.233 39.46 121.113 39.46C119.98 39.46 119.02 39.2667 118.233 38.88C117.446 38.5067 116.773 37.9733 116.213 37.28L117.673 35.86C118.073 36.3533 118.573 36.74 119.173 37.02C119.786 37.3 120.433 37.44 121.113 37.44C121.686 37.44 122.206 37.3333 122.673 37.12C123.153 36.92 123.533 36.6 123.813 36.16C124.106 35.7333 124.253 35.18 124.253 34.5V33.18C123.906 33.78 123.413 34.2467 122.773 34.58C122.146 34.9 121.48 35.06 120.773 35.06ZM121.673 32.92C121.966 32.92 122.246 32.8733 122.513 32.78C122.78 32.6867 123.026 32.56 123.253 32.4C123.48 32.24 123.68 32.0533 123.853 31.84C124.026 31.6133 124.16 31.3867 124.253 31.16V28.66C124.093 28.2467 123.866 27.8867 123.573 27.58C123.293 27.2733 122.973 27.04 122.613 26.88C122.266 26.7067 121.9 26.62 121.513 26.62C121.1 26.62 120.726 26.7067 120.393 26.88C120.06 27.0533 119.773 27.3 119.533 27.62C119.293 27.9267 119.106 28.2733 118.973 28.66C118.853 29.0333 118.793 29.4267 118.793 29.84C118.793 30.2667 118.866 30.6667 119.013 31.04C119.16 31.4133 119.36 31.74 119.613 32.02C119.88 32.3 120.186 32.52 120.533 32.68C120.893 32.84 121.273 32.92 121.673 32.92ZM135.589 26.84C134.776 26.84 134.049 27 133.409 27.32C132.769 27.6267 132.309 28.0733 132.029 28.66V35H129.349V24.52H131.809V26.76C132.182 26.04 132.656 25.4733 133.229 25.06C133.802 24.6467 134.409 24.42 135.049 24.38C135.196 24.38 135.309 24.38 135.389 24.38C135.469 24.38 135.536 24.3867 135.589 24.4V26.84ZM141.807 35.2C140.967 35.2 140.207 35.06 139.527 34.78C138.847 34.4867 138.267 34.0933 137.787 33.6C137.307 33.0933 136.933 32.52 136.667 31.88C136.413 31.2267 136.287 30.54 136.287 29.82C136.287 28.82 136.507 27.9067 136.947 27.08C137.4 26.2533 138.04 25.5933 138.867 25.1C139.707 24.5933 140.693 24.34 141.827 24.34C142.973 24.34 143.953 24.5933 144.767 25.1C145.58 25.5933 146.2 26.2533 146.627 27.08C147.067 27.8933 147.287 28.7733 147.287 29.72C147.287 29.88 147.28 30.0467 147.267 30.22C147.253 30.38 147.24 30.5133 147.227 30.62H139.127C139.18 31.1533 139.333 31.62 139.587 32.02C139.853 32.42 140.187 32.7267 140.587 32.94C141 33.14 141.44 33.24 141.907 33.24C142.44 33.24 142.94 33.1133 143.407 32.86C143.887 32.5933 144.213 32.2467 144.387 31.82L146.687 32.46C146.433 32.9933 146.067 33.4667 145.587 33.88C145.12 34.2933 144.567 34.62 143.927 34.86C143.287 35.0867 142.58 35.2 141.807 35.2ZM139.067 28.92H144.547C144.493 28.3867 144.34 27.9267 144.087 27.54C143.847 27.14 143.527 26.8333 143.127 26.62C142.727 26.3933 142.28 26.28 141.787 26.28C141.307 26.28 140.867 26.3933 140.467 26.62C140.08 26.8333 139.76 27.14 139.507 27.54C139.267 27.9267 139.12 28.3867 139.067 28.92ZM152.779 35.2C151.886 35.2 151.033 35.0533 150.219 34.76C149.406 34.4667 148.706 34.0333 148.119 33.46L149.079 31.72C149.706 32.2267 150.319 32.6 150.919 32.84C151.533 33.08 152.119 33.2 152.679 33.2C153.199 33.2 153.613 33.1067 153.919 32.92C154.239 32.7333 154.399 32.4533 154.399 32.08C154.399 31.8267 154.313 31.6333 154.139 31.5C153.966 31.3533 153.713 31.2267 153.379 31.12C153.059 31.0133 152.666 30.8933 152.199 30.76C151.426 30.5067 150.779 30.26 150.259 30.02C149.739 29.78 149.346 29.48 149.079 29.12C148.826 28.7467 148.699 28.2733 148.699 27.7C148.699 27.0067 148.873 26.4133 149.219 25.92C149.579 25.4133 150.073 25.02 150.699 24.74C151.339 24.46 152.086 24.32 152.939 24.32C153.686 24.32 154.393 24.44 155.059 24.68C155.726 24.9067 156.333 25.28 156.879 25.8L155.799 27.5C155.266 27.0867 154.759 26.7867 154.279 26.6C153.799 26.4 153.313 26.3 152.819 26.3C152.539 26.3 152.273 26.3333 152.019 26.4C151.779 26.4667 151.579 26.58 151.419 26.74C151.273 26.8867 151.199 27.1 151.199 27.38C151.199 27.6333 151.266 27.8333 151.399 27.98C151.546 28.1133 151.759 28.2333 152.039 28.34C152.333 28.4467 152.686 28.5667 153.099 28.7C153.939 28.94 154.646 29.1867 155.219 29.44C155.806 29.6933 156.246 30.0067 156.539 30.38C156.833 30.74 156.979 31.24 156.979 31.88C156.979 32.92 156.599 33.7333 155.839 34.32C155.079 34.9067 154.059 35.2 152.779 35.2ZM162.662 35.2C161.769 35.2 160.915 35.0533 160.102 34.76C159.289 34.4667 158.589 34.0333 158.002 33.46L158.962 31.72C159.589 32.2267 160.202 32.6 160.802 32.84C161.415 33.08 162.002 33.2 162.562 33.2C163.082 33.2 163.495 33.1067 163.802 32.92C164.122 32.7333 164.282 32.4533 164.282 32.08C164.282 31.8267 164.195 31.6333 164.022 31.5C163.849 31.3533 163.595 31.2267 163.262 31.12C162.942 31.0133 162.549 30.8933 162.082 30.76C161.309 30.5067 160.662 30.26 160.142 30.02C159.622 29.78 159.229 29.48 158.962 29.12C158.709 28.7467 158.582 28.2733 158.582 27.7C158.582 27.0067 158.755 26.4133 159.102 25.92C159.462 25.4133 159.955 25.02 160.582 24.74C161.222 24.46 161.969 24.32 162.822 24.32C163.569 24.32 164.275 24.44 164.942 24.68C165.609 24.9067 166.215 25.28 166.762 25.8L165.682 27.5C165.149 27.0867 164.642 26.7867 164.162 26.6C163.682 26.4 163.195 26.3 162.702 26.3C162.422 26.3 162.155 26.3333 161.902 26.4C161.662 26.4667 161.462 26.58 161.302 26.74C161.155 26.8867 161.082 27.1 161.082 27.38C161.082 27.6333 161.149 27.8333 161.282 27.98C161.429 28.1133 161.642 28.2333 161.922 28.34C162.215 28.4467 162.569 28.5667 162.982 28.7C163.822 28.94 164.529 29.1867 165.102 29.44C165.689 29.6933 166.129 30.0067 166.422 30.38C166.715 30.74 166.862 31.24 166.862 31.88C166.862 32.92 166.482 33.7333 165.722 34.32C164.962 34.9067 163.942 35.2 162.662 35.2ZM173.525 35.2C172.672 35.2 171.905 35.06 171.225 34.78C170.545 34.4867 169.965 34.0867 169.485 33.58C169.018 33.0733 168.658 32.4933 168.405 31.84C168.152 31.1867 168.025 30.5 168.025 29.78C168.025 29.0467 168.152 28.3533 168.405 27.7C168.658 27.0467 169.018 26.4667 169.485 25.96C169.965 25.4533 170.545 25.06 171.225 24.78C171.905 24.4867 172.672 24.34 173.525 24.34C174.378 24.34 175.138 24.4867 175.805 24.78C176.485 25.06 177.065 25.4533 177.545 25.96C178.025 26.4667 178.385 27.0467 178.625 27.7C178.878 28.3533 179.005 29.0467 179.005 29.78C179.005 30.5 178.878 31.1867 178.625 31.84C178.385 32.4933 178.025 33.0733 177.545 33.58C177.078 34.0867 176.505 34.4867 175.825 34.78C175.145 35.06 174.378 35.2 173.525 35.2ZM170.785 29.78C170.785 30.3933 170.905 30.94 171.145 31.42C171.385 31.8867 171.712 32.2533 172.125 32.52C172.538 32.7867 173.005 32.92 173.525 32.92C174.032 32.92 174.492 32.7867 174.905 32.52C175.318 32.24 175.645 31.8667 175.885 31.4C176.138 30.92 176.265 30.3733 176.265 29.76C176.265 29.16 176.138 28.62 175.885 28.14C175.645 27.66 175.318 27.2867 174.905 27.02C174.492 26.7533 174.032 26.62 173.525 26.62C173.005 26.62 172.538 26.76 172.125 27.04C171.712 27.3067 171.385 27.68 171.145 28.16C170.905 28.6267 170.785 29.1667 170.785 29.78ZM181.334 29.66V20.66H184.014V29.66H181.334ZM181.334 35V31.98H184.014V35H181.334Z" fill="white"/>
<path d="M222.75 34.375L221.312 28.9375L225.688 25.3125L220.062 25L218 19.75L215.938 25L210.25 25.3125L214.688 28.9375L213.25 34.375L218 31.3125L222.75 34.375ZM229.438 26.125C228.938 26.6667 228.688 27.2917 228.688 28C228.688 28.7083 228.938 29.3333 229.438 29.875C229.979 30.4167 230.604 30.6875 231.312 30.6875V36C231.312 36.7083 231.042 37.3333 230.5 37.875C230 38.4167 229.396 38.6875 228.688 38.6875H207.312C206.604 38.6875 205.979 38.4167 205.438 37.875C204.938 37.3333 204.688 36.7083 204.688 36V30.6875C205.438 30.6875 206.062 30.4375 206.562 29.9375C207.062 29.3958 207.312 28.75 207.312 28C207.312 27.2917 207.042 26.6667 206.5 26.125C206 25.5833 205.396 25.3125 204.688 25.3125V20C204.688 19.2917 204.938 18.6667 205.438 18.125C205.979 17.5833 206.604 17.3125 207.312 17.3125H228.688C229.396 17.3125 230 17.5833 230.5 18.125C231.042 18.6667 231.312 19.2917 231.312 20V25.3125C230.604 25.3125 229.979 25.5833 229.438 26.125Z" fill="white"/>
</g>
<defs>
<filter id="filter0_d_105_6810" x="0" y="0" width="254" height="60" filterUnits="userSpaceOnUse" color-interpolation-filters="sRGB">
<feFlood flood-opacity="0" result="BackgroundImageFix"/>
<feColorMatrix in="SourceAlpha" type="matrix" values="0 0 0 0 0 0 0 0 0 0 0 0 0 0 0 0 0 0 127 0" result="hardAlpha"/>
<feOffset dx="4" dy="4"/>
<feComposite in2="hardAlpha" operator="out"/>
<feColorMatrix type="matrix" values="0 0 0 0 0 0 0 0 0 0 0 0 0 0 0 0 0 0 1 0"/>
<feBlend mode="normal" in2="BackgroundImageFix" result="effect1_dropShadow_105_6810"/>
<feBlend mode="normal" in="SourceGraphic" in2="effect1_dropShadow_105_6810" result="shape"/>
</filter>
</defs>
</svg>
